<mxfile host="65bd71144e" modified="2021-01-27T09:30:05.072Z" agent="5.0 (Windows NT 6.1; Win64; x64) AppleWebKit/537.36 (KHTML, like Gecko) Code/1.51.1 Chrome/83.0.4103.122 Electron/9.3.3 Safari/537.36" etag="ecHIBpR_7d9d4hKPsced" version="13.10.0" type="embed">
    <diagram id="6hGFLwfOUW9BJ-s0fimq" name="Page-1">
        <mxGraphModel dx="2736" dy="910" grid="1" gridSize="10" guides="1" tooltips="1" connect="1" arrows="1" fold="1" page="1" pageScale="1" pageWidth="827" pageHeight="1169" math="0" shadow="0">
            <root>
                <mxCell id="0"/>
                <mxCell id="1" parent="0"/>
                <mxCell id="49" value="JS" style="rounded=1;whiteSpace=wrap;html=1;" parent="1" vertex="1">
                    <mxGeometry x="-1480" y="20" width="410" height="30" as="geometry"/>
                </mxCell>
                <mxCell id="55" value="基本数据类型" style="rounded=1;whiteSpace=wrap;html=1;" vertex="1" parent="1">
                    <mxGeometry x="-1600" y="90" width="100" height="30" as="geometry"/>
                </mxCell>
                <mxCell id="56" value="arr str 方法" style="rounded=1;whiteSpace=wrap;html=1;" vertex="1" parent="1">
                    <mxGeometry x="-1477.5" y="90" width="70" height="30" as="geometry"/>
                </mxCell>
                <mxCell id="57" value="this" style="rounded=1;whiteSpace=wrap;html=1;" vertex="1" parent="1">
                    <mxGeometry x="-1590" y="280" width="70" height="30" as="geometry"/>
                </mxCell>
                <mxCell id="58" value="new" style="rounded=1;whiteSpace=wrap;html=1;" vertex="1" parent="1">
                    <mxGeometry x="-1500" y="280" width="70" height="30" as="geometry"/>
                </mxCell>
                <mxCell id="59" value="原型链" style="rounded=1;whiteSpace=wrap;html=1;" vertex="1" parent="1">
                    <mxGeometry x="-1590" y="330" width="70" height="30" as="geometry"/>
                </mxCell>
                <mxCell id="60" value="函数和箭头函数" style="rounded=1;whiteSpace=wrap;html=1;" vertex="1" parent="1">
                    <mxGeometry x="-1500" y="330" width="115" height="30" as="geometry"/>
                </mxCell>
                <mxCell id="61" value="消息队列 宏任务 微任务" style="rounded=1;whiteSpace=wrap;html=1;" vertex="1" parent="1">
                    <mxGeometry x="-1590" y="380" width="200" height="30" as="geometry"/>
                </mxCell>
                <mxCell id="63" value="dom style" style="rounded=1;whiteSpace=wrap;html=1;" vertex="1" parent="1">
                    <mxGeometry x="-950" y="80" width="70" height="30" as="geometry"/>
                </mxCell>
                <mxCell id="64" value="cookie location" style="rounded=1;whiteSpace=wrap;html=1;" vertex="1" parent="1">
                    <mxGeometry x="-1030" y="130" width="180" height="30" as="geometry"/>
                </mxCell>
                <mxCell id="65" value="数组和对象的本质" style="rounded=1;whiteSpace=wrap;html=1;" vertex="1" parent="1">
                    <mxGeometry x="-1600" y="150" width="170" height="30" as="geometry"/>
                </mxCell>
                <mxCell id="66" value="算法" style="rounded=1;whiteSpace=wrap;html=1;" vertex="1" parent="1">
                    <mxGeometry x="-1580" y="490" width="70" height="30" as="geometry"/>
                </mxCell>
                <mxCell id="67" value="递归" style="rounded=1;whiteSpace=wrap;html=1;" vertex="1" parent="1">
                    <mxGeometry x="-1580" y="540" width="70" height="30" as="geometry"/>
                </mxCell>
                <mxCell id="69" value="网址的流程" style="rounded=1;whiteSpace=wrap;html=1;" vertex="1" parent="1">
                    <mxGeometry x="-1480" y="490" width="130" height="30" as="geometry"/>
                </mxCell>
                <mxCell id="70" value="闭包" style="rounded=1;whiteSpace=wrap;html=1;" vertex="1" parent="1">
                    <mxGeometry x="-1275" y="330" width="70" height="30" as="geometry"/>
                </mxCell>
                <mxCell id="71" value="函数作用域" style="rounded=1;whiteSpace=wrap;html=1;" vertex="1" parent="1">
                    <mxGeometry x="-1370" y="330" width="70" height="30" as="geometry"/>
                </mxCell>
                <mxCell id="72" value="this指向" style="rounded=1;whiteSpace=wrap;html=1;" vertex="1" parent="1">
                    <mxGeometry x="-1410" y="280" width="70" height="30" as="geometry"/>
                </mxCell>
                <mxCell id="73" value="标签&lt;br&gt;href src style script" style="rounded=1;whiteSpace=wrap;html=1;" vertex="1" parent="1">
                    <mxGeometry x="-1050" y="180" width="215" height="50" as="geometry"/>
                </mxCell>
                <mxCell id="75" value="requestAnimationFrame" style="rounded=1;whiteSpace=wrap;html=1;" vertex="1" parent="1">
                    <mxGeometry x="-1050" y="250" width="200" height="30" as="geometry"/>
                </mxCell>
                <mxCell id="76" value="web workers" style="rounded=1;whiteSpace=wrap;html=1;" vertex="1" parent="1">
                    <mxGeometry x="-1050" y="300" width="200" height="30" as="geometry"/>
                </mxCell>
                <mxCell id="77" value="call apply bind" style="rounded=1;whiteSpace=wrap;html=1;" vertex="1" parent="1">
                    <mxGeometry x="-1375" y="380" width="170" height="30" as="geometry"/>
                </mxCell>
                <mxCell id="78" value="隐式转换" style="rounded=1;whiteSpace=wrap;html=1;" vertex="1" parent="1">
                    <mxGeometry x="-1400" y="150" width="70" height="30" as="geometry"/>
                </mxCell>
                <mxCell id="79" value="隐式调用方法" style="rounded=1;whiteSpace=wrap;html=1;" vertex="1" parent="1">
                    <mxGeometry x="-1310" y="150" width="90" height="30" as="geometry"/>
                </mxCell>
                <mxCell id="80" value="冒泡 阻止冒泡" style="rounded=1;whiteSpace=wrap;html=1;" vertex="1" parent="1">
                    <mxGeometry x="-1050" y="350" width="130" height="30" as="geometry"/>
                </mxCell>
            </root>
        </mxGraphModel>
    </diagram>
</mxfile>